Coordinates
version=1
nRows=43
nColumns=12
inDegrees=yes

Units are S.I. units (second, meters, Newtons, ...)
Angles are in degrees

endheader
time	SC_y	SC_z	SC_x	AC_y	AC_z	AC_x	GH_y	GH_z	GH_yy	EL_x	PS_y
       0.0              -55.03          25.61          31.09          61.84         -5.576         -12.95         -152.0          51.96         -4.469          126.1          117.2
   0.01749              -55.03          25.61          31.08          61.84         -5.577         -12.95         -151.9          51.95         -4.451          126.1          117.2
   0.03499              -55.02          25.61          31.08          61.84         -5.579         -12.95         -151.9          51.94         -4.432          126.1          117.3
   0.05248              -55.02          25.61          31.07          61.83          -5.58         -12.95         -151.8          51.93         -4.412          126.1          117.3
   0.06997              -55.02          25.61          31.07          61.83         -5.582         -12.95         -151.8          51.92         -4.391          126.1          117.3
   0.08746              -55.02          25.61          31.06          61.82         -5.583         -12.95         -151.7          51.91         -4.368          126.1          117.3
     0.105              -55.01          25.61          31.06          61.82         -5.585         -12.95         -151.6           51.9         -4.344          126.0          117.3
    0.1224              -55.01          25.61          31.05          61.81         -5.587         -12.94         -151.6          51.89         -4.318          126.0          117.3
    0.1399              -55.01          25.61          31.04          61.81         -5.589         -12.94         -151.5          51.88         -4.291          126.0          117.3
    0.1574               -55.0          25.61          31.04           61.8         -5.591         -12.94         -151.4          51.87         -4.261          126.0          117.3
    0.1749               -55.0          25.61          31.03           61.8         -5.593         -12.94         -151.3          51.85         -4.229          125.9          117.3
    0.1924               -55.0          25.61          31.02          61.79         -5.595         -12.94         -151.2          51.84         -4.195          125.9          117.3
    0.2099              -54.99          25.61          31.01          61.79         -5.598         -12.94         -151.1          51.82         -4.158          125.9          117.3
    0.2274              -54.99           25.6           31.0          61.78         -5.601         -12.93         -151.0          51.81         -4.118          125.8          117.4
    0.2449              -54.98           25.6          30.99          61.77         -5.604         -12.93         -150.9          51.79         -4.075          125.8          117.4
    0.2624              -54.98           25.6          30.98          61.76         -5.607         -12.93         -150.8          51.77         -4.028          125.7          117.4
    0.2799              -54.97           25.6          30.97          61.75         -5.611         -12.93         -150.6          51.75         -3.977          125.7          117.4
    0.2974              -54.97           25.6          30.95          61.74         -5.615         -12.93         -150.5          51.72         -3.921          125.6          117.4
    0.3149              -54.96           25.6          30.94          61.73         -5.619         -12.92         -150.3           51.7          -3.86          125.6          117.4
    0.3324              -54.95           25.6          30.92          61.72         -5.624         -12.92         -150.1          51.67         -3.794          125.5          117.5
    0.3499              -54.95           25.6          30.91          61.71         -5.629         -12.92         -149.9          51.64         -3.721          125.4          117.5
    0.3673              -54.94           25.6          30.89          61.69         -5.634         -12.91         -149.7           51.6         -3.641          125.4          117.5
    0.3848              -54.93           25.6          30.87          61.67         -5.641         -12.91         -149.5          51.56         -3.552          125.3          117.5
    0.4023              -54.92          25.59          30.84          61.66         -5.647          -12.9         -149.2          51.52         -3.454          125.2          117.6
    0.4198              -54.91          25.59          30.82          61.64         -5.655          -12.9         -148.9          51.47         -3.345          125.1          117.6
    0.4373              -54.89          25.59          30.79          61.61         -5.664         -12.89         -148.6          51.42         -3.223          125.0          117.7
    0.4548              -54.88          25.59          30.75          61.59         -5.673         -12.89         -148.2          51.36         -3.086          124.9          117.7
    0.4723              -54.86          25.59          30.72          61.56         -5.684         -12.88         -147.8           51.3         -2.933          124.7          117.8
    0.4898              -54.84          25.58          30.68          61.53         -5.696         -12.87         -147.3          51.22         -2.759          124.6          117.8
    0.5073              -54.82          25.58          30.63          61.49          -5.71         -12.86         -146.8          51.14         -2.562          124.4          117.9
    0.5248               -54.8          25.58          30.58          61.45         -5.726         -12.85         -146.2          51.04         -2.338          124.2          118.0
    0.5423              -54.77          25.57          30.51          61.41         -5.744         -12.84         -145.5          50.93          -2.08          123.9          118.0
    0.5598              -54.74          25.57          30.44          61.35         -5.765         -12.83         -144.7           50.8         -1.782          123.6          118.2
    0.5773               -54.7          25.57          30.36          61.29         -5.789         -12.81         -143.7          50.66         -1.436          123.3          118.3
    0.5948              -54.66          25.56          30.26          61.21         -5.818         -12.79         -142.6          50.48          -1.03          122.9          118.4
    0.6122               -54.6          25.55          30.15          61.13         -5.851         -12.77         -141.3          50.28         -0.553          122.5          118.6
    0.6297              -54.54          25.54          30.01          61.02         -5.891         -12.74         -139.8          50.03        0.01433          122.0          118.8
    0.6472              -54.47          25.53          29.85           60.9         -5.939         -12.71         -137.9          49.74         0.6944          121.3          119.0
    0.6647              -54.38          25.52          29.65          60.75         -5.997         -12.67         -135.7          49.39          1.517          120.6          119.3
    0.6822              -54.27          25.51          29.41          60.56         -6.067         -12.62         -132.9          48.96          2.522          119.6          119.6
    0.6997              -54.14          25.49          29.11          60.34         -6.154         -12.57         -129.6          48.43          3.763          118.5          120.0
    0.7172              -53.97          25.47          28.74          60.05         -6.263         -12.49         -125.3          47.76           5.31          117.0          120.6
    0.7347              -53.76          25.44          28.28           59.7           -6.4          -12.4         -120.0          46.93          7.259          115.2          121.2
